<svg xmlns="http://www.w3.org/2000/svg" viewBox="0 0 694.66 163.23"><defs><style>.cls-1{fill:#e2052d;}</style></defs><g id="Capa_2" data-name="Capa 2"><g id="Capa_1-2" data-name="Capa 1"><path class="cls-1" d="M613,0a81.62,81.62,0,1,1-81.6,80.48C531.92,36.12,568.32-.11,613,0Zm62,81.65a62,62,0,1,0-60.51,61.9A62,62,0,0,0,675,81.65Z"/><path class="cls-1" d="M207.44,50.1l-2.55,8.79q-4.33,15-8.68,30A2.57,2.57,0,0,1,193.38,91c-4-.09-8.09,0-12.13,0a2.47,2.47,0,0,1-2.66-2q-5.47-18.93-11-37.86a1.91,1.91,0,0,0-.41-.8c-.22,1.84-.43,3.67-.64,5.51l-3.69,32.72c-.22,2-.82,2.53-2.88,2.53H146.24c-2,0-2.73-.78-2.54-2.72.39-3.88.81-7.75,1.2-11.62q1.29-12.68,2.57-25.35c.76-7.37,1.55-14.73,2.32-22.09.4-3.87.77-7.74,1.18-11.61a2.28,2.28,0,0,1,2.58-2.27h17c2,0,2.58.42,3.14,2.3q3.21,10.68,6.4,21.36l7.08,23.69c0,.14.11.28.22.55,1-3.29,1.95-6.46,2.91-9.63q5.41-18,10.85-36a2.71,2.71,0,0,1,3.07-2.31h16.69c1.94,0,2.84.81,3,2.73.61,6.21,1.21,12.42,1.85,18.63.78,7.62,1.63,15.23,2.41,22.85,1,9.32,1.88,18.64,2.82,28a14.11,14.11,0,0,1,.09,1.45c0,1.32-.6,2-1.91,2q-7.53,0-15,0c-1.41,0-2.08-.8-2.25-2.38q-.73-6.76-1.5-13.53Q209,62.9,207.62,50.62c0-.16,0-.32,0-.48Z"/><path class="cls-1" d="M521.47,53.36c.09,21.27-17,37.87-37.05,38.84a39,39,0,1,1,37.05-38.84ZM501.7,52.7a18,18,0,0,0-.31-3.15,19.58,19.58,0,0,0-5.86-11.29,18.42,18.42,0,0,0-14.42-5.08,18,18,0,0,0-13.48,7.17,20.47,20.47,0,0,0-4.27,14.2,19.62,19.62,0,0,0,7,14.51,18.49,18.49,0,0,0,14.36,4.16,17.92,17.92,0,0,0,11.39-5.57C500,63.65,501.65,58.78,501.7,52.7Z"/><path class="cls-1" d="M0,53.35v-35c0-2.31.69-3,3-3,8.31,0,16.62-.09,24.93,0A38.54,38.54,0,0,1,53.8,25.25,36.15,36.15,0,0,1,66.25,50.5,36.1,36.1,0,0,1,55.64,79.62,37.29,37.29,0,0,1,30.1,91c-8.2.41-16.42.07-24.63.13-1.07,0-2.13,0-3.2,0C.65,91.06,0,90.38,0,88.75Zm19.79-.12c0,6.21,0,12.41,0,18.62,0,.7.13,1,.88.93,2.49-.07,5,0,7.46-.21A20.2,20.2,0,0,0,41,67a18.6,18.6,0,0,0,5.7-14,19.4,19.4,0,0,0-16.47-19c-3.15-.52-6.32-.16-9.48-.29-.75,0-1,.18-1,.94C19.81,40.88,19.79,47.05,19.79,53.23Z"/><path class="cls-1" d="M301.88,91.09H294.6a2.52,2.52,0,0,1-2.82-2c-1.21-3.16-2.43-6.31-3.6-9.49a1,1,0,0,0-1.09-.77q-12.66,0-25.32,0a1,1,0,0,0-1.12.76c-1.15,3.14-2.36,6.26-3.54,9.39a2.64,2.64,0,0,1-3,2.08H239.68c-.22,0-.45,0-.68,0-1.46-.15-2-1-1.45-2.34,1.12-2.88,2.25-5.76,3.36-8.64Q248.7,60,256.49,39.77q4.32-11.21,8.65-22.42a2.87,2.87,0,0,1,2.78-1.91c4.37,0,8.73,0,13.1,0,1.42,0,2.16,1,2.69,2.14,1.87,4.24,3.44,8.61,5.12,12.92q7.86,20.2,15.66,40.42c2.27,5.85,4.56,11.69,6.82,17.54.63,1.62,0,2.6-1.77,2.63C307,91.12,304.43,91.09,301.88,91.09ZM274.49,39.5a3.13,3.13,0,0,0-.26.47c-2.64,7.25-4.66,14.71-7.36,22-.22.59.14.56.52.56,4.72,0,9.44,0,14.16,0,.62,0,.57-.21.41-.68-.49-1.36-.94-2.74-1.4-4.11C278.55,51.66,276.53,45.62,274.49,39.5Z"/><path class="cls-1" d="M128.21,91.09H121c-1.71,0-2.32-.39-2.93-2q-1.83-4.72-3.6-9.48c-.21-.55-.41-.8-1.07-.8q-12.71,0-25.41,0a.93.93,0,0,0-1,.72c-1.15,3.11-2.34,6.21-3.52,9.31-.67,1.77-1.29,2.2-3.17,2.2H65.93a3.74,3.74,0,0,1-1.24-.16,1.32,1.32,0,0,1-.89-2q2.48-6.45,5-12.88L84.62,35Q88,26.18,91.44,17.37a3.18,3.18,0,0,1,2.87-1.94c4.23,0,8.47,0,12.7,0a2.93,2.93,0,0,1,2.87,1.89c1.59,3.39,2.82,6.91,4.18,10.39,3.66,9.38,7.27,18.79,10.91,28.18q6.27,16.16,12.56,32.3c.78,2,.16,2.91-2.05,2.91ZM100.83,39.62c-.15.14-.21.17-.23.23C97.9,47.14,95.9,54.67,93.17,62c-.19.49.1.53.47.52h14.24c.54,0,.58-.16.41-.62-.42-1.11-.79-2.24-1.16-3.37Q104,49.08,100.83,39.62Z"/><path class="cls-1" d="M343,13.79a34.66,34.66,0,0,1,23.48,8.67,13,13,0,0,1,1.55,1.6c1.24,1.52,1.22,2.58-.08,4s-2.46,2.65-3.69,4c-1.38,1.49-2.78,3-4.15,4.46s-2.53,1.51-4.05.25A31.88,31.88,0,0,0,349.13,32a13,13,0,0,0-10.05-.57,4.47,4.47,0,0,0-3.39,3.81c-.28,2.17.79,3.64,2.48,4.75,2.68,1.76,5.76,2.56,8.73,3.58,5.09,1.76,10.21,3.43,14.84,6.26,5.24,3.2,8.93,7.56,9.78,13.87,1.05,7.81-1,14.65-6.67,20.2a28.81,28.81,0,0,1-14.73,7.4c-11.92,2.45-22.37-.85-31.73-8.24a39.68,39.68,0,0,1-4.85-4.85c-1.19-1.32-1.11-2.39.17-3.6,2.72-2.57,5.43-5.16,8.14-7.74.23-.22.48-.42.73-.62,1.47-1.16,2.24-1.18,3.69,0a64,64,0,0,0,6.35,5c3.15,2,6.46,3.36,10.26,3.24a10.69,10.69,0,0,0,6.05-1.68,5.63,5.63,0,0,0,.41-8.88,22.18,22.18,0,0,0-7.38-3.7,72.9,72.9,0,0,1-13.63-5.92c-4.67-2.74-8.73-6.15-10.81-11.33-3.74-9.32-1.17-20.3,9.17-25.64a32.58,32.58,0,0,1,13.65-3.48c.45,0,.9-.07,1.35-.09Z"/><path class="cls-1" d="M416.8,14.37a37.61,37.61,0,0,1,21.67,6.48c1.8,1.21,2,2.33.72,4.12q-4,5.64-8,11.3c-1,1.4-1.8,1.59-3.22.58a20.29,20.29,0,0,0-9.44-3.62A18.63,18.63,0,0,0,400,42.78a20.85,20.85,0,0,0-.51,19.84,17.93,17.93,0,0,0,15.35,10.53,19.39,19.39,0,0,0,13.06-3.57c1.77-1.21,2.41-1.1,3.63.66,2.64,3.82,5.3,7.62,7.93,11.44,1.17,1.68.95,2.74-.78,3.86a38.94,38.94,0,0,1-20.59,6.63,38,38,0,0,1-26.63-9.27A37.32,37.32,0,0,1,378,57.3,39,39,0,0,1,414,14.38C414.92,14.3,415.86,14.37,416.8,14.37Z"/><path class="cls-1" d="M234.45,114.28c1.83-2.91,4.49-4,7.67-4.08a9.17,9.17,0,0,1,7.42,2.58c.49.5.92,1.06,1.38,1.59.51-.49,1-1,1.52-1.46,3.89-3.27,10.53-3.8,14.25-.59a12.46,12.46,0,0,1,4,8,37.53,37.53,0,0,1,.18,5.61c0,4.14,0,8.27,0,12.41,0,1.56-.45,2-2,2h-4.95c-1.52,0-1.85-.34-1.85-1.89,0-5,0-10,0-14.94a4.74,4.74,0,0,0-2.22-4.45,4.33,4.33,0,0,0-6.41,3.81c0,4.82,0,9.64,0,14.45,0,.23,0,.46,0,.68-.06,2-.43,2.34-2.42,2.34h-4.66c-1.43,0-1.84-.41-1.84-1.85,0-5.17,0-10.34,0-15.51a4.22,4.22,0,0,0-4.6-4.46,4.87,4.87,0,0,0-4.13,4.65c0,4.82,0,9.64,0,14.46,0,.41-.06.83-.09,1.24a1.48,1.48,0,0,1-1.61,1.46q-2.87.06-5.73,0c-1.17,0-1.68-.67-1.68-2,0-3.26,0-6.53,0-9.79V112.84c0-1.63.56-2.22,2.18-2.24h2.91c1.28,0,1.71.31,2.12,1.55C234.07,112.81,234.24,113.5,234.45,114.28Z"/><path class="cls-1" d="M285.34,137.19v10c0,1.88-.4,2.28-2.26,2.28h-4.56a1.94,1.94,0,0,1-2.21-2.17V112.7c0-1.61.6-2.2,2.22-2.2,1.07,0,2.13,0,3.2,0a1.51,1.51,0,0,1,1.61,1.11l1.2,3.36c.56-.7,1.07-1.39,1.63-2,2.18-2.52,5-3.06,8.16-2.73a14.77,14.77,0,0,1,13.06,14.22A16.15,16.15,0,0,1,303.67,136a13.9,13.9,0,0,1-12.27,4.86,7.57,7.57,0,0,1-5-2.68A4.36,4.36,0,0,0,285.34,137.19Zm-.59-11.72a7.37,7.37,0,0,0,7.32,7.42c3.79-.06,6.65-3.2,6.66-7.29s-2.9-7.44-6.64-7.44A7.4,7.4,0,0,0,284.75,125.47Z"/><path class="cls-1" d="M455.6,123V107.1c0-1.33.23-1.56,1.59-1.56,3.85,0,7.7,0,11.54,0A17.56,17.56,0,0,1,486,121.31,17.15,17.15,0,0,1,472,140a21.75,21.75,0,0,1-4,.38H457c-1.14,0-1.36-.22-1.36-1.36Zm11.57-8.92c-.68,0-1.26,0-1.84,0s-.62.11-.62.6q0,8.32,0,16.65c0,.47.15.61.61.61a23.6,23.6,0,0,0,4.52-.32A8.75,8.75,0,0,0,475.43,118,8.89,8.89,0,0,0,467.17,114.09Z"/><path class="cls-1" d="M513.75,114.18c.34-.92.67-1.8,1-2.68a1.39,1.39,0,0,1,1.54-1c1,0,2.07,0,3.1,0,1.82,0,2.32.48,2.32,2.28V137.3c0,.45,0,.9,0,1.35a1.62,1.62,0,0,1-1.71,1.71c-1.62,0-3.23,0-4.85,0a1.46,1.46,0,0,1-1.54-1.07c-.18-.53-.38-1.07-.6-1.67a11.3,11.3,0,0,1-5.84,3.12c-5.65,1-12.23-2.35-15.06-7.68a15.43,15.43,0,0,1,2.53-18.48A14,14,0,0,1,509,110.72a8.28,8.28,0,0,1,4.25,2.89C513.38,113.81,513.56,114,513.75,114.18Zm-1.1,11.32a7.43,7.43,0,0,0-7.23-7.44c-3.74-.07-6.74,3.26-6.74,7.48s2.85,7.26,6.68,7.27A7.23,7.23,0,0,0,512.65,125.5Z"/><path class="cls-1" d="M161.18,104.86a15.62,15.62,0,0,1,11.5,4.33c1.07,1,1,1.52,0,2.6s-2.15,2.31-3.26,3.44c-.78.81-1.19.82-2.07.09a11.12,11.12,0,0,0-4.38-2.55,5.59,5.59,0,0,0-3.41.28,2,2,0,0,0-.44,3.63,10.25,10.25,0,0,0,3,1.38,73.87,73.87,0,0,1,7,2.71c8,3.74,6.73,13.64,1.31,17.23-5.61,3.73-11.42,3.69-17.3.62a17.07,17.07,0,0,1-5.08-4.1,1.16,1.16,0,0,1,.06-1.84q1.89-1.8,3.79-3.59c.82-.76,1.3-.77,2.18,0a17.53,17.53,0,0,0,4.17,2.93,7,7,0,0,0,4.81.47,2.83,2.83,0,0,0,2.24-2.37c.25-1.31-.55-2-1.51-2.67a26.48,26.48,0,0,0-4.82-2,20.29,20.29,0,0,1-7.31-4.41,9.2,9.2,0,0,1,2.22-14.5A14.93,14.93,0,0,1,161.18,104.86Z"/><path class="cls-1" d="M355.05,128.25c-2.78,0-5.56,0-8.34,0-.95,0-1,.31-.72,1.05a6.49,6.49,0,0,0,7,4.06,9.61,9.61,0,0,0,5.55-2.25,1.31,1.31,0,0,1,2.11.13c.94,1,1.85,2,2.74,3a1.54,1.54,0,0,1-.17,2.38,15.51,15.51,0,0,1-22.05-21.78,13.71,13.71,0,0,1,14.8-4.06A14.13,14.13,0,0,1,366,121.63a17.44,17.44,0,0,1,.21,4.73c0,1.08-.59,1.59-1.69,1.77a8.66,8.66,0,0,1-1.44.12Zm-9-6.77h11.72c-1.38-2.54-3.21-4.25-6.2-4.09C348.9,117.53,347.43,119.33,346,121.48Z"/><path class="cls-1" d="M424.51,128.25c-2.81,0-5.62,0-8.43,0-.69,0-.84.2-.64.83a5.55,5.55,0,0,0,3.41,3.71c3.2,1.25,6.14.48,8.83-1.44,1.26-.9,1.88-.91,2.87.23l2.16,2.47a1.63,1.63,0,0,1-.08,2.6,15.52,15.52,0,0,1-21.35-.16,14.93,14.93,0,0,1-4.75-10.86c-.06-8.34,5.93-14.88,13.62-15.44a14.55,14.55,0,0,1,15.61,15.64c-.15,2-.84,2.38-2.91,2.42C430.07,128.29,427.29,128.25,424.51,128.25Zm2.72-6.71c-1.39-2.93-3.72-4.39-6.5-4.16a6.74,6.74,0,0,0-5,4.16Z"/><path class="cls-1" d="M210.77,128.25h-8.24c-1.11,0-1.21.17-.78,1.25a6.49,6.49,0,0,0,6.92,3.84,9.42,9.42,0,0,0,5.46-2.21,1.39,1.39,0,0,1,2.22.09,42.2,42.2,0,0,1,2.86,3.26,1.56,1.56,0,0,1-.37,2.16A15.2,15.2,0,0,1,202,139.47c-5.25-2.43-8.45-6.51-9.11-12.28a15,15,0,0,1,11.66-16.76,14.58,14.58,0,0,1,17.38,16.07c-.14,1-.63,1.5-1.82,1.65a50.8,50.8,0,0,1-5.52.1C213.29,128.27,212,128.25,210.77,128.25Zm2.72-6.7c-1.43-2.63-3.31-4.35-6.33-4.15-2.62.17-4.13,1.92-5.39,4.08a2.12,2.12,0,0,0,.36.07Z"/><path class="cls-1" d="M396.42,129.06v9.12c0,1.57-.59,2.18-2.13,2.19h-5.05c-1.36,0-1.94-.58-1.94-2,0-6.2,0-12.41,0-18.61,0-.82-.21-1.1-1-1a7.49,7.49,0,0,1-1.06,0c-1.61,0-2.1-.37-2.19-1.9a43.16,43.16,0,0,1,0-4.55c.07-1.36.58-1.75,1.9-1.8.76,0,1.8.36,2.21-.17s.12-1.49.13-2.26a16.11,16.11,0,0,0,0-1.84,1.62,1.62,0,0,1,1.14-1.81c2-.74,3.93-1.46,5.92-2.1,1.29-.41,2,.23,2.07,1.61,0,1.94,0,3.88,0,5.82,0,.59.13.81.75.77.8,0,1.61,0,2.42,0,1.07,0,1.66.55,1.68,1.58,0,1.68,0,3.37,0,5a1.52,1.52,0,0,1-1.67,1.6,22.44,22.44,0,0,1-2.32,0c-.67,0-.88.14-.87.84C396.44,122.79,396.42,125.93,396.42,129.06Z"/><path class="cls-1" d="M319.77,114.17a22.58,22.58,0,0,1,2.76-2.7c2.65-1.93,5.46-1.58,8.28-.54a16.51,16.51,0,0,1,3.85,2.39,1.45,1.45,0,0,1,.5,2c-.79,1.4-1.56,2.81-2.45,4.15a1.82,1.82,0,0,1-2.86.24,5.87,5.87,0,0,0-4.87-1.58,5.16,5.16,0,0,0-4,4.74v15.32c0,1.62-.52,2.14-2.13,2.14h-4.95c-1.4,0-1.94-.54-1.94-1.92V112.57a1.74,1.74,0,0,1,1.95-2c1.1,0,2.2,0,3.3,0a1.54,1.54,0,0,1,1.6,1C319.12,112.42,319.42,113.26,319.77,114.17Z"/><path class="cls-1" d="M179.2,125.43v-12.7c0-1.63.5-2.13,2.14-2.13h4.56c1.59,0,2.32.73,2.32,2.28v25.49c0,1.44-.54,2-2,2-1.75,0-3.49,0-5.24,0-1.29,0-1.81-.55-1.81-1.85C179.19,134.16,179.2,129.79,179.2,125.43Z"/><path class="cls-1" d="M533.25,26.88c-6.44.25-12.49-5.41-12.37-12.73a12.4,12.4,0,1,1,24.79.82C545.44,21.33,539.9,27.11,533.25,26.88Zm8.53-12.4a8.51,8.51,0,0,0-17-.52c-.11,4.82,3.52,9,8,9A8.55,8.55,0,0,0,541.78,14.48Z"/><path class="cls-1" d="M183.56,107.2c-.87,0-1.74,0-2.61,0a1.54,1.54,0,0,1-1.74-1.64c0-1.74,0-3.49,0-5.23a1.34,1.34,0,0,1,1.42-1.48,47.2,47.2,0,0,1,6.18,0,1.38,1.38,0,0,1,1.41,1.52c0,1.62,0,3.23,0,4.85a1.89,1.89,0,0,1-2,2Z"/><path class="cls-1" d="M613.23,124.37H601.3a6.45,6.45,0,0,1-3.31-.89,4.81,4.81,0,0,1-2.6-4.52c0-6.63,0-13.25,0-19.88,0-.88-.22-1.13-1.11-1.12-6.11,0-12.23,0-18.34,0a15.21,15.21,0,0,1-2-.12,4.23,4.23,0,0,1-3.65-4.53q-.07-12,0-24c0-2.81,1.85-4.27,5.11-4.27,6.31,0,12.61,0,18.92,0,.91,0,1.1-.26,1.09-1.12q0-9.93,0-19.88c0-3.08,1.25-4.74,3.85-5.16a10,10,0,0,1,1.73-.15q12.22,0,24.45,0a8,8,0,0,1,2,.24,3.7,3.7,0,0,1,3,3.18,15.07,15.07,0,0,1,.2,2.41c0,6.5,0,13,0,19.5,0,.84.25,1,1,1,6.24,0,12.48,0,18.73,0,3.57,0,5.41,1.85,5.41,5.43,0,7.21,0,14.42,0,21.63a6.34,6.34,0,0,1-2.29,4.92,4.53,4.53,0,0,1-3.19.91c-6.2,0-12.41,0-18.62,0-.84,0-1.07.18-1.07,1,0,6.5,0,13,0,19.5a10.71,10.71,0,0,1-.18,2.12c-.48,2.45-2.19,3.73-5,3.74C621.38,124.39,617.31,124.37,613.23,124.37Z"/><path class="cls-1" d="M534.84,19.38,533.72,17a.36.36,0,0,0-.34-.22h-.76a.38.38,0,0,0-.37.37v2.09a.41.41,0,0,1-.42.41H529a.41.41,0,0,1-.41-.41V9a.41.41,0,0,1,.41-.41h5c3,0,4.72,1.43,4.72,4A3.84,3.84,0,0,1,536.91,16l1.8,3a.41.41,0,0,1-.35.62h-3.15A.4.4,0,0,1,534.84,19.38ZM532.25,14h1.69a1.19,1.19,0,0,0,1.25-1.35,1.16,1.16,0,0,0-1.25-1.29h-1.69Z"/></g></g></svg>